<?xml version="1.0" standalone="no"?>
<!DOCTYPE svg PUBLIC "-//W3C//DTD SVG 20010904//EN"
 "http://www.w3.org/TR/2001/REC-SVG-20010904/DTD/svg10.dtd">
<svg version="1.0" xmlns="http://www.w3.org/2000/svg"
 width="683.000000pt" height="768.000000pt" viewBox="0 0 683.000000 768.000000"
 preserveAspectRatio="xMidYMid meet">

<g transform="translate(0.000000,768.000000) scale(0.100000,-0.100000)"
fill="#000000" stroke="none">
<path d="M3265 6539 c-459 -44 -878 -238 -1214 -563 -317 -308 -513 -673 -592
-1106 -25 -135 -35 -421 -21 -556 54 -484 247 -897 575 -1227 167 -168 319
-278 533 -386 194 -99 425 -171 639 -202 128 -18 434 -16 576 5 295 42 590
159 869 344 131 87 345 291 447 427 421 560 535 1262 311 1905 -175 501 -540
916 -1017 1155 -197 99 -378 157 -598 190 -127 19 -381 26 -508 14z m386 -149
c724 -70 1356 -572 1596 -1265 122 -355 132 -769 28 -1130 -120 -415 -372
-764 -740 -1031 -121 -87 -381 -215 -515 -253 -237 -68 -293 -75 -555 -75
-221 1 -250 3 -364 27 -444 96 -806 312 -1089 651 -214 257 -361 582 -414 916
-17 113 -17 470 0 570 39 215 93 379 188 569 185 367 462 643 829 825 202 101
387 161 570 185 152 21 326 25 466 11z"/>
<path d="M3375 5330 c-196 -27 -358 -156 -440 -350 -23 -53 -29 -85 -33 -170
-5 -128 7 -196 55 -293 46 -92 153 -202 239 -245 243 -123 553 -57 712 151 87
115 117 205 116 357 -1 99 -4 124 -27 183 -100 257 -350 404 -622 367z"/>
<path d="M1896 5058 c-19 -31 -52 -153 -73 -273 -31 -185 -15 -597 26 -638 23
-23 160 102 214 193 77 133 97 299 54 447 -27 93 -58 150 -123 222 -62 69 -79
78 -98 49z"/>
<path d="M4960 5031 c-120 -120 -170 -240 -170 -410 0 -119 19 -194 73 -286
48 -82 194 -221 213 -202 3 2 12 37 22 78 25 109 24 489 -1 609 -24 112 -65
248 -77 255 -5 3 -32 -16 -60 -44z"/>
<path d="M2930 4049 c-262 -143 -458 -369 -559 -645 -36 -100 -30 -118 69
-197 217 -174 502 -296 777 -332 460 -60 892 47 1237 309 84 63 126 104 126
122 0 18 -59 182 -82 229 -70 137 -213 313 -332 404 -79 61 -214 140 -252 147
-25 5 -46 0 -81 -19 -120 -62 -190 -80 -334 -85 -158 -5 -251 13 -378 73 -40
19 -83 35 -95 35 -11 0 -55 -19 -96 -41z"/>
<path d="M1948 3932 c-16 -9 -28 -22 -28 -29 0 -42 215 -413 239 -413 5 0 12
12 16 28 3 15 31 75 61 134 30 59 54 114 54 121 0 32 -240 177 -292 177 -13 0
-35 -8 -50 -18z"/>
<path d="M4876 3929 c-86 -35 -229 -126 -239 -152 -4 -11 112 -259 129 -276
21 -21 234 341 234 398 0 13 -59 54 -73 50 -1 0 -24 -9 -51 -20z"/>
<path d="M1215 5071 c-86 -66 -168 -200 -200 -326 -32 -127 -6 -280 70 -409
32 -55 103 -136 118 -136 9 0 12 77 12 292 0 300 5 355 46 520 29 116 29 117
-46 59z"/>
<path d="M5650 5097 c0 -2 9 -43 20 -92 48 -220 65 -542 39 -734 -6 -45 -8
-85 -5 -89 12 -12 121 115 154 179 45 88 62 159 62 258 0 136 -35 243 -113
347 -53 69 -157 157 -157 131z"/>
<path d="M1095 3932 c-166 -70 -363 -237 -475 -402 -86 -128 -168 -325 -156
-374 13 -52 176 -173 354 -263 105 -53 289 -119 422 -150 111 -27 560 -26 673
0 43 10 81 25 83 32 4 8 -37 55 -101 117 -250 240 -457 560 -561 865 -21 59
-42 114 -48 122 -12 15 -124 71 -141 70 -5 0 -28 -8 -50 -17z"/>
<path d="M5699 3910 l-56 -29 -62 -158 c-115 -290 -252 -510 -463 -742 l-68
-74 52 -56 c79 -87 145 -140 185 -147 50 -9 209 2 344 25 281 49 611 200 780
358 58 54 61 74 25 179 -87 258 -335 536 -578 649 -67 31 -90 31 -159 -5z"/>
<path d="M4839 2721 l-24 -20 155 -156 c85 -86 163 -161 174 -167 15 -8 24 -5
45 16 l26 26 -160 160 c-88 88 -167 160 -176 160 -9 0 -27 -9 -40 -19z"/>
<path d="M5365 2293 c-76 -66 -95 -96 -95 -150 0 -37 13 -51 462 -496 255
-252 477 -467 493 -477 17 -11 47 -20 70 -20 36 0 46 7 112 74 68 69 73 78 73
118 l1 43 -478 473 c-263 260 -488 477 -501 482 -45 19 -70 11 -137 -47z"/>
</g>
</svg>
