<?xml version="1.0" standalone="no"?>
<!DOCTYPE svg PUBLIC "-//W3C//DTD SVG 20010904//EN"
 "http://www.w3.org/TR/2001/REC-SVG-20010904/DTD/svg10.dtd">
<svg version="1.0" xmlns="http://www.w3.org/2000/svg"
 width="683.000000pt" height="768.000000pt" viewBox="0 0 683.000000 768.000000"
 preserveAspectRatio="xMidYMid meet">

<g transform="translate(0.000000,768.000000) scale(0.100000,-0.100000)"
fill="#000000" stroke="none">
<path d="M3505 6895 c-5 -2 -129 -42 -275 -90 -146 -48 -271 -92 -278 -99 -10
-10 -7 -28 14 -94 15 -45 32 -82 38 -82 6 0 135 41 286 92 321 107 249 107
610 -6 396 -125 870 -272 1195 -371 66 -20 233 -72 370 -115 138 -43 356 -111
485 -150 129 -40 237 -74 239 -76 12 -12 -31 -29 -200 -80 -178 -53 -420 -128
-774 -239 -93 -30 -237 -74 -320 -100 -82 -26 -220 -68 -305 -95 -85 -26 -281
-87 -435 -135 -154 -47 -343 -106 -420 -131 -77 -24 -149 -44 -159 -44 -10 0
-219 63 -465 139 -245 77 -594 185 -776 241 -181 55 -357 109 -390 120 -260
82 -487 153 -575 180 -187 55 -385 120 -399 129 -15 9 172 72 494 166 88 26
164 51 169 56 11 10 -31 154 -49 169 -16 13 -693 -189 -744 -223 -53 -35 -85
-97 -84 -162 0 -77 42 -140 120 -179 26 -13 33 -24 38 -58 3 -24 5 -205 3
-403 l-3 -360 -76 -125 c-234 -387 -215 -351 -193 -367 39 -30 116 -64 137
-61 14 2 36 26 64 73 68 111 73 105 73 -90 l0 -166 93 3 92 3 3 163 c1 89 7
162 12 162 4 0 25 -28 46 -62 45 -76 63 -98 80 -98 16 0 144 80 144 90 0 4
-63 112 -140 240 l-140 232 0 369 c0 361 0 369 20 369 11 0 88 -22 172 -50 84
-27 239 -76 343 -108 l190 -59 5 -544 c4 -413 8 -551 18 -573 15 -34 18 -30
-73 -86 -172 -106 -1099 -704 -1151 -743 -40 -29 -69 -61 -89 -98 l-30 -54 -3
-529 c-3 -606 -5 -591 80 -678 74 -76 117 -91 283 -97 l140 -6 5 -500 5 -500
25 -49 c33 -64 90 -122 148 -149 l47 -22 1780 0 c1681 0 1782 1 1823 18 81 33
1535 946 1579 991 82 85 80 167 -8 294 -60 86 -120 212 -146 302 -14 51 -18
101 -18 230 1 149 3 172 26 240 24 74 26 76 97 122 85 57 113 102 114 182 1
58 -10 83 -83 190 -63 93 -94 170 -115 287 -15 80 -16 105 -5 176 17 117 44
197 96 283 25 41 50 93 56 114 22 79 -19 174 -93 216 l-43 25 -498 3 -497 3 2
477 3 477 140 43 c896 275 855 261 899 313 69 81 56 209 -28 275 -42 34 -49
37 -476 169 -184 57 -432 134 -550 170 -118 37 -300 93 -405 125 -104 32 -293
90 -420 130 -126 39 -354 110 -505 157 -151 47 -291 89 -310 94 -34 8 -135 11
-155 4z m-1160 -1640 c258 -81 494 -155 770 -240 138 -42 275 -84 305 -94 l55
-18 3 -503 c1 -277 -1 -507 -5 -511 -5 -4 -28 -1 -53 7 -25 8 -110 35 -190 60
-228 71 -561 175 -858 268 -151 47 -285 92 -298 101 -14 9 -29 27 -34 41 -10
27 -14 966 -4 976 6 6 67 -11 309 -87z m2773 -389 c3 -540 5 -523 -73 -556
-24 -10 -58 -23 -77 -28 -71 -21 -698 -216 -982 -306 -165 -52 -303 -93 -308
-90 -4 3 -8 234 -8 514 l0 509 43 11 c55 14 680 207 1072 330 171 54 315 97
320 96 6 -2 11 -172 13 -480z m630 -606 c244 0 392 -4 387 -9 -11 -10 -182
-114 -605 -366 -146 -87 -372 -223 -502 -302 l-238 -144 -1915 -1 c-1054 0
-1918 1 -1920 4 -5 5 70 54 629 413 236 151 432 275 437 275 5 0 44 -12 86
-26 76 -26 190 -61 593 -185 107 -34 330 -104 495 -157 266 -85 309 -96 375
-96 70 -1 109 10 540 146 256 80 584 183 730 228 146 45 279 89 295 98 46 23
99 68 114 96 16 29 34 36 75 30 16 -2 207 -4 424 -4z m378 -277 c-35 -115 -40
-295 -12 -417 24 -105 70 -212 134 -312 29 -45 52 -85 52 -90 0 -6 -129 -90
-287 -189 -159 -98 -485 -302 -726 -452 -241 -150 -444 -273 -452 -273 -21 0
-83 140 -112 249 -20 76 -25 122 -26 221 -1 184 42 340 133 484 l38 60 614
367 c337 203 621 368 631 368 13 1 17 -4 13 -16z m-1506 -752 c0 -5 -15 -49
-34 -98 -103 -265 -101 -558 3 -825 21 -53 36 -100 33 -103 -8 -7 -3759 -6
-3814 1 -25 4 -59 17 -74 29 l-29 23 -3 491 -3 491 1961 0 c1154 0 1960 -4
1960 -9z m1446 -624 c1 -141 5 -175 28 -262 29 -111 82 -230 151 -335 25 -39
45 -75 45 -80 0 -7 -1287 -817 -1417 -891 -42 -24 -42 -24 -57 -4 -24 31 -75
158 -98 243 -28 104 -31 326 -5 422 49 183 117 307 198 362 30 20 212 134 404
254 193 119 435 270 539 335 104 66 194 119 200 119 7 0 11 -54 12 -163z
m-1446 -605 c0 -5 -18 -55 -39 -113 -55 -145 -71 -234 -71 -390 0 -157 25
-293 76 -419 19 -46 34 -88 34 -92 0 -4 -752 -8 -1671 -8 l-1671 0 -34 34 -34
34 0 481 0 481 1705 0 c938 0 1705 -4 1705 -8z"/>
<path d="M926 3022 c-10 -17 -17 -115 -11 -152 l7 -40 1676 2 1677 3 3 91 3
91 -368 7 c-481 9 -2981 7 -2987 -2z"/>
<path d="M922 2523 l3 -98 1665 -2 c1041 -2 1671 1 1680 7 12 7 15 28 13 90
-1 44 -5 84 -8 90 -4 7 -565 10 -1681 10 l-1675 0 3 -97z"/>
<path d="M1434 1787 c-3 -8 -4 -52 -2 -98 l3 -84 1417 0 c779 0 1420 4 1425 8
10 11 11 145 1 170 -7 16 -84 17 -1423 17 -1171 0 -1417 -2 -1421 -13z"/>
<path d="M1432 1293 l3 -98 1410 -2 c882 -2 1416 1 1425 7 11 7 15 28 14 82 0
41 -3 81 -7 91 -6 16 -91 17 -1427 17 l-1421 0 3 -97z"/>
<path d="M2295 6811 c-39 -6 -40 -7 -47 -58 -13 -89 -46 -159 -105 -223 -65
-71 -130 -105 -231 -121 l-73 -12 3 -91 3 -91 52 -7 c92 -13 160 -46 227 -109
71 -66 100 -122 120 -228 l12 -66 78 -3 c45 -2 83 2 91 8 7 6 15 33 19 61 22
163 128 282 291 325 28 8 65 14 83 14 l33 0 -3 92 -3 93 -82 17 c-92 19 -108
26 -176 77 -79 59 -147 184 -147 270 0 14 -4 31 -8 37 -9 15 -86 23 -137 15z
m128 -578 c-41 -41 -78 -73 -83 -71 -10 4 -150 138 -150 144 0 3 35 38 77 79
l78 75 76 -76 77 -76 -75 -75z"/>
<path d="M4265 5785 c-319 -107 -587 -198 -595 -203 -13 -8 -12 -18 7 -79 39
-118 -31 -129 633 93 322 107 591 201 599 209 13 13 12 22 -3 72 -19 60 -41
104 -54 102 -4 0 -268 -88 -587 -194z"/>
</g>
</svg>
