<?xml version="1.0" standalone="no"?>
<!DOCTYPE svg PUBLIC "-//W3C//DTD SVG 20010904//EN"
 "http://www.w3.org/TR/2001/REC-SVG-20010904/DTD/svg10.dtd">
<svg version="1.0" xmlns="http://www.w3.org/2000/svg"
 width="683.000000pt" height="768.000000pt" viewBox="0 0 683.000000 768.000000"
 preserveAspectRatio="xMidYMid meet">

<g transform="translate(0.000000,768.000000) scale(0.100000,-0.100000)"
fill="#000000" stroke="none">
<path d="M1690 6638 c-20 -22 -20 -29 -20 -993 0 -535 -2 -974 -5 -977 -7 -6
-99 15 -301 71 -162 44 -200 49 -228 28 -18 -13 -34 -67 -215 -752 -32 -118
-141 -525 -226 -840 -23 -88 -59 -223 -80 -300 -21 -77 -52 -195 -71 -263 -34
-125 -34 -153 -2 -180 23 -18 499 -142 549 -142 99 0 222 58 291 139 19 22 38
41 42 41 4 0 23 -16 42 -35 32 -33 34 -40 34 -102 0 -36 5 -84 12 -105 15 -51
84 -128 141 -158 l45 -24 -1 -80 c-1 -66 3 -89 21 -123 32 -60 75 -106 125
-133 l43 -23 0 -86 c-1 -75 3 -94 27 -143 46 -94 134 -148 242 -148 29 0 69 7
88 15 l36 15 37 -56 c89 -134 216 -168 376 -100 11 5 36 -10 85 -55 100 -91
155 -114 273 -114 82 0 103 4 152 27 80 37 142 98 183 181 19 38 35 76 35 83
0 24 17 16 74 -34 30 -26 79 -61 108 -78 49 -27 60 -29 158 -29 95 0 111 3
162 28 98 48 166 130 208 252 11 32 23 49 31 47 8 -2 43 -10 79 -18 210 -44
411 94 450 308 8 44 7 72 -5 129 -8 40 -11 76 -7 79 4 4 27 12 52 19 106 31
204 108 250 199 12 23 25 44 30 47 4 2 40 9 81 15 106 16 278 66 385 112 l92
40 54 -41 c142 -107 223 -112 518 -32 261 70 275 76 290 110 13 32 18 11 -100
446 -194 718 -435 1617 -470 1755 -22 90 -44 120 -86 120 -14 0 -116 -25 -227
-55 -111 -30 -214 -57 -229 -61 l-27 -6 -3 980 c-3 947 -4 981 -22 1001 l-19
21 -1768 0 -1768 0 -21 -22z m3450 -1107 c0 -662 -3 -992 -10 -996 -14 -9 -54
-90 -74 -151 l-16 -50 -155 -68 c-86 -38 -177 -76 -204 -87 l-48 -18 -94 56
c-310 185 -776 334 -1094 349 -186 10 -324 -18 -500 -101 l-90 -42 -165 -7
c-91 -4 -228 -11 -305 -17 -139 -10 -433 -46 -448 -56 -14 -8 -35 17 -42 50
-4 18 -24 64 -46 104 l-39 72 0 969 c0 533 3 972 7 975 3 4 753 7 1665 7
l1658 0 0 -989z m-3702 -957 c111 -30 189 -57 217 -75 85 -54 127 -157 107
-259 -9 -46 -249 -945 -373 -1400 -39 -140 -81 -274 -94 -296 -47 -79 -150
-125 -247 -110 -46 8 -322 82 -355 96 -19 8 -20 13 -13 47 21 89 529 1987 545
2031 7 19 27 16 213 -34z m4361 -221 c183 -672 481 -1793 481 -1809 0 -6 -78
-33 -172 -60 -249 -71 -337 -66 -419 23 -50 54 -50 51 -259 833 -51 190 -109
408 -130 485 -101 375 -110 416 -110 472 0 69 23 125 71 171 47 47 65 54 224
96 77 21 151 41 165 46 14 5 37 9 51 9 25 1 27 -4 98 -266z m-2232 62 c125
-20 377 -86 493 -128 176 -64 371 -160 494 -243 28 -19 60 -34 72 -34 12 0 90
31 175 68 201 90 248 107 258 96 7 -8 75 -252 176 -634 13 -47 70 -263 128
-480 146 -544 137 -508 123 -519 -48 -39 -350 -131 -429 -131 -31 0 -35 3 -41
33 -20 104 -29 114 -644 730 -323 323 -611 604 -640 623 -153 102 -350 100
-502 -5 -30 -21 -139 -129 -242 -241 -103 -112 -208 -217 -233 -233 -37 -24
-60 -31 -118 -35 -95 -6 -159 20 -222 90 -56 62 -69 102 -63 193 4 60 11 84
43 141 82 149 180 280 295 395 270 274 537 369 877 314z m-927 -151 c0 -3 -35
-43 -78 -89 -92 -99 -173 -209 -259 -354 -79 -132 -96 -190 -91 -296 16 -309
362 -488 622 -322 29 18 132 120 243 242 201 217 247 257 317 276 62 17 183 7
236 -20 31 -16 220 -197 623 -600 647 -645 634 -629 624 -748 -9 -116 -91
-200 -205 -210 -115 -11 -118 -8 -483 354 -179 177 -331 323 -337 323 -45 0
-78 -41 -70 -88 2 -11 167 -186 368 -391 217 -220 372 -386 383 -408 28 -59
20 -167 -16 -221 -43 -65 -97 -96 -177 -100 -120 -7 -107 -17 -520 394 -358
357 -377 374 -413 374 -45 0 -73 -34 -62 -77 4 -18 114 -136 308 -331 166
-166 310 -317 319 -334 61 -111 11 -261 -105 -317 -52 -25 -141 -28 -194 -6
-21 9 -106 85 -208 185 -106 104 -180 170 -193 170 -31 0 -72 -38 -72 -67 0
-14 18 -52 39 -85 46 -68 58 -125 41 -188 -38 -140 -175 -212 -311 -165 -43
16 -149 108 -149 130 0 6 54 67 121 135 66 68 129 141 140 162 46 90 31 208
-37 286 -42 49 -92 77 -164 93 -38 8 -50 15 -50 29 0 33 -31 114 -57 149 -35
45 -105 88 -168 102 -50 11 -54 14 -60 48 -23 128 -108 212 -237 236 -32 6
-37 11 -43 43 -26 144 -133 236 -270 236 -85 -1 -130 -28 -274 -164 -68 -63
-127 -117 -133 -119 -12 -4 -108 88 -108 105 0 10 133 513 334 1258 41 153 81
285 88 292 27 27 431 81 621 83 64 0 117 -2 117 -5z m-570 -1612 c14 -10 33
-35 44 -56 30 -62 13 -98 -107 -223 -143 -149 -188 -183 -241 -183 -89 0 -151
79 -125 159 14 42 257 295 304 317 36 17 91 11 125 -14z m280 -280 c42 -31 64
-82 56 -127 -6 -35 -31 -64 -194 -226 -195 -195 -215 -209 -281 -194 -37 8
-88 58 -96 96 -14 65 0 86 183 271 96 97 189 184 206 193 37 19 90 13 126 -13z
m270 -275 c33 -17 70 -74 70 -109 0 -16 -6 -41 -14 -56 -22 -41 -447 -459
-479 -471 -62 -24 -124 -3 -157 52 -26 41 -25 83 1 126 25 41 353 377 422 432
39 31 57 39 90 39 23 0 53 -6 67 -13z m304 -298 c38 -33 53 -79 41 -126 -7
-31 -312 -345 -357 -369 -33 -17 -85 -18 -118 -1 -56 28 -86 113 -57 164 16
27 291 311 330 341 48 34 116 31 161 -9z"/>
<path d="M3370 6324 c-237 -47 -412 -158 -533 -341 -95 -144 -133 -288 -124
-468 4 -70 13 -135 27 -180 77 -248 268 -438 520 -516 101 -32 319 -34 420 -5
142 41 260 115 361 224 239 261 274 618 90 926 -49 83 -171 203 -258 255 -112
67 -235 102 -368 106 -60 2 -121 1 -135 -1z m281 -160 c196 -58 358 -214 425
-409 24 -69 28 -96 28 -195 0 -100 -4 -125 -28 -195 -67 -195 -200 -331 -394
-403 -91 -34 -257 -42 -352 -17 -99 26 -216 91 -285 160 -78 77 -117 134 -157
232 -30 74 -32 85 -33 208 0 150 10 195 68 309 82 159 247 284 423 321 83 17
226 12 305 -11z"/>
<path d="M3770 5863 c-8 -3 -112 -102 -231 -219 -119 -118 -223 -214 -231
-214 -8 0 -23 10 -34 21 -30 35 -95 79 -116 79 -28 0 -58 -36 -58 -71 0 -26
15 -47 87 -120 72 -74 92 -89 117 -89 27 0 64 33 277 243 252 250 279 280 279
308 0 37 -55 74 -90 62z"/>
</g>
</svg>
