<?xml version="1.0" standalone="no"?>
<!DOCTYPE svg PUBLIC "-//W3C//DTD SVG 20010904//EN"
 "http://www.w3.org/TR/2001/REC-SVG-20010904/DTD/svg10.dtd">
<svg version="1.0" xmlns="http://www.w3.org/2000/svg"
 width="683.000000pt" height="768.000000pt" viewBox="0 0 683.000000 768.000000"
 preserveAspectRatio="xMidYMid meet">

<g transform="translate(0.000000,768.000000) scale(0.100000,-0.100000)"
fill="#000000" stroke="none">
<path d="M4069 6874 c-52 -25 -141 -68 -199 -94 -58 -27 -163 -76 -235 -110
-71 -34 -157 -75 -190 -90 -33 -15 -185 -86 -337 -159 l-277 -131 -745 0 -746
0 -2 -352 -3 -353 -65 -32 c-36 -18 -175 -84 -310 -147 -429 -201 -460 -216
-460 -230 0 -7 25 -67 56 -132 79 -168 196 -416 304 -644 51 -107 112 -235
135 -285 23 -49 110 -235 194 -411 l151 -322 0 -996 0 -996 23 -1 c12 -1 220
-1 462 0 242 1 445 -2 452 -6 6 -5 66 -125 133 -268 67 -143 132 -284 146
-313 l25 -52 32 14 c18 8 129 60 247 116 231 110 325 154 435 205 39 18 196
93 350 166 l280 134 740 1 c407 1 746 2 753 3 9 1 12 79 12 354 l0 354 98 44
c53 25 235 110 404 190 l308 144 0 46 c0 37 -15 77 -71 195 -39 82 -86 181
-104 219 -18 39 -73 156 -122 260 -50 105 -137 289 -193 410 -56 121 -143 306
-192 410 -50 105 -98 206 -107 225 -14 31 -17 140 -21 1040 l-5 1005 -467 3
-468 2 -14 23 c-8 12 -76 154 -151 315 -76 160 -143 292 -150 292 -6 0 -54
-21 -106 -46z m108 -395 c46 -96 83 -177 83 -181 0 -5 -209 -8 -465 -8 -257 0
-465 4 -465 9 0 10 741 361 755 357 6 -1 47 -81 92 -177z m-719 -389 l1772 0
-2 -2252 -3 -2253 -1842 -3 -1843 -2 0 2254 0 2255 23 4 c12 3 45 4 72 1 28
-2 848 -4 1823 -4z m-2118 -1470 c0 -407 -4 -740 -9 -740 -4 0 -44 78 -89 173
-44 94 -131 278 -193 407 -204 429 -289 613 -289 624 0 11 543 275 568 276 9
0 12 -154 12 -740z m4330 -1305 c54 -115 152 -324 218 -464 67 -140 118 -259
115 -264 -3 -5 -33 -21 -67 -37 -33 -15 -117 -54 -186 -87 -225 -108 -310
-146 -314 -142 -5 5 -9 761 -6 1204 l2 290 70 -145 c38 -80 114 -239 168 -355z
m-2230 -1933 c0 -10 -6 -12 -422 -208 -180 -85 -331 -154 -336 -154 -9 0 -158
304 -168 345 l-6 25 466 0 c256 0 466 -4 466 -8z"/>
<path d="M1855 5768 c-3 -7 -4 -328 -3 -713 l3 -700 608 -3 607 -2 0 715 0
715 -605 0 c-475 0 -607 -3 -610 -12z m1015 -703 l0 -515 -407 2 -408 3 -3
513 -2 512 410 0 410 0 0 -515z"/>
<path d="M3390 5680 l0 -100 763 2 762 3 3 75 c2 41 0 85 -3 97 l-5 23 -760 0
-760 0 0 -100z"/>
<path d="M3390 5070 l0 -100 763 2 762 3 3 75 c2 41 0 85 -3 97 l-5 23 -760 0
-760 0 0 -100z"/>
<path d="M3390 4450 l0 -100 759 0 759 0 6 31 c8 40 8 117 0 147 l-6 22 -759
0 -759 0 0 -100z"/>
<path d="M1857 3933 c-4 -3 -7 -48 -7 -100 l0 -93 1529 0 1530 0 7 45 c3 25 3
70 -1 100 l-6 55 -1523 0 c-837 0 -1526 -3 -1529 -7z"/>
<path d="M4071 3620 c-25 -5 -67 -17 -95 -26 -171 -56 -325 -191 -409 -359
-59 -119 -72 -174 -71 -320 1 -112 4 -141 27 -210 27 -82 75 -171 129 -238 36
-46 44 -23 -91 -257 -56 -96 -101 -180 -101 -187 0 -14 44 -20 198 -27 62 -3
118 -8 124 -12 5 -4 48 -65 94 -136 47 -71 89 -128 95 -126 6 2 64 96 128 208
65 114 124 205 132 205 8 0 66 -91 131 -205 65 -113 122 -206 128 -208 5 -2
48 55 95 127 47 71 89 132 94 135 5 3 55 8 112 11 160 9 209 15 209 28 0 12
-49 100 -172 308 -37 64 -68 122 -68 129 0 7 13 34 29 59 89 139 127 277 118
436 -10 186 -76 333 -207 465 -136 136 -282 199 -475 206 -60 2 -130 -1 -154
-6z m281 -210 c180 -55 329 -226 359 -411 36 -218 -84 -447 -284 -543 -343
-165 -738 81 -737 458 1 99 12 153 51 232 59 120 170 217 297 261 89 30 222
32 314 3z m285 -1137 c52 -86 50 -93 -28 -93 -35 0 -43 -5 -71 -45 -17 -24
-35 -42 -39 -39 -16 10 -83 138 -73 141 5 2 43 20 84 42 41 21 80 39 87 40 6
0 24 -20 40 -46z m-739 3 c26 -13 66 -29 90 -36 23 -7 42 -18 42 -23 0 -12
-58 -115 -69 -121 -4 -3 -22 15 -39 39 -26 38 -37 45 -64 45 -18 0 -43 3 -55
6 l-22 6 21 42 c21 42 37 66 45 66 2 0 25 -11 51 -24z"/>
<path d="M1854 3307 c-3 -8 -4 -49 -2 -93 l3 -79 45 -6 c70 -9 1311 -10 1345
-1 l30 8 0 90 0 89 -708 3 c-585 2 -708 0 -713 -11z"/>
</g>
</svg>
