<?xml version="1.0" standalone="no"?>
<!DOCTYPE svg PUBLIC "-//W3C//DTD SVG 20010904//EN"
 "http://www.w3.org/TR/2001/REC-SVG-20010904/DTD/svg10.dtd">
<svg version="1.0" xmlns="http://www.w3.org/2000/svg"
 width="683.000000pt" height="768.000000pt" viewBox="0 0 683.000000 768.000000"
 preserveAspectRatio="xMidYMid meet">

<g transform="translate(0.000000,768.000000) scale(0.100000,-0.100000)"
fill="#000000" stroke="none">
<path d="M3270 6297 c-121 -29 -232 -112 -314 -236 -23 -36 -131 -205 -238
-376 -107 -170 -323 -512 -480 -760 -517 -816 -1021 -1615 -1238 -1960 -117
-187 -262 -415 -321 -507 -257 -398 -279 -441 -286 -566 -14 -251 140 -458
382 -513 89 -21 5143 -21 5225 0 204 50 334 189 376 399 22 108 8 195 -50 307
-23 44 -159 265 -302 490 -144 226 -326 514 -406 640 -192 306 -400 636 -628
995 -280 442 -462 730 -835 1320 -185 294 -355 559 -377 588 -48 65 -139 133
-216 163 -70 26 -212 34 -292 16z m220 -573 c95 -28 172 -90 235 -188 18 -28
102 -172 187 -321 225 -392 1297 -2249 1461 -2530 173 -296 206 -364 220 -454
30 -198 -68 -393 -241 -478 l-76 -38 -1891 0 -1891 0 -76 38 c-151 74 -238
224 -239 407 0 120 22 181 142 387 56 98 141 243 187 323 46 80 144 249 217
375 72 127 284 493 470 815 186 322 439 761 563 975 303 528 314 545 370 597
105 99 232 131 362 92z"/>
<path d="M3075 4926 c-76 -34 -99 -91 -84 -210 10 -84 81 -541 124 -801 13
-82 41 -262 60 -400 62 -431 85 -576 95 -594 14 -27 67 -46 97 -35 55 19 59
34 123 484 33 234 69 479 80 545 150 926 147 896 107 956 -43 65 -63 69 -332
69 -178 -1 -248 -4 -270 -14z"/>
<path d="M3278 2720 c-142 -36 -228 -187 -188 -332 25 -88 123 -170 222 -183
118 -17 249 71 283 189 35 121 -21 247 -137 307 -44 23 -129 32 -180 19z"/>
</g>
</svg>
