<?xml version="1.0" standalone="no"?>
<!DOCTYPE svg PUBLIC "-//W3C//DTD SVG 20010904//EN"
 "http://www.w3.org/TR/2001/REC-SVG-20010904/DTD/svg10.dtd">
<svg version="1.0" xmlns="http://www.w3.org/2000/svg"
 width="683.000000pt" height="768.000000pt" viewBox="0 0 683.000000 768.000000"
 preserveAspectRatio="xMidYMid meet">

<g transform="translate(0.000000,768.000000) scale(0.100000,-0.100000)"
fill="#000000" stroke="none">
<path d="M4351 7109 c-113 -34 -216 -161 -256 -315 -8 -32 -15 -72 -15 -89 0
-38 -1 -39 -83 -105 -81 -65 -135 -133 -177 -221 -49 -105 -63 -192 -56 -349
8 -199 51 -370 130 -525 23 -44 49 -103 59 -132 37 -108 153 -226 283 -288
128 -60 287 -69 416 -22 173 63 285 171 353 342 15 39 40 95 55 125 96 190
149 537 111 715 -21 99 -84 217 -156 294 -36 38 -80 79 -99 92 -28 19 -35 31
-40 70 -8 61 -48 176 -83 240 -31 57 -103 127 -160 155 -44 21 -226 30 -282
13z m180 -179 c19 -6 45 -20 56 -32 23 -24 73 -119 73 -136 0 -7 -46 -8 -132
-5 -73 3 -157 1 -186 -5 -44 -8 -55 -7 -59 5 -8 20 34 107 68 139 39 38 115
52 180 34z m122 -381 c125 -42 240 -138 294 -243 35 -68 52 -182 44 -283 -3
-45 -9 -85 -13 -89 -4 -4 -25 9 -47 29 -45 40 -87 63 -177 96 -87 32 -128 70
-174 162 -43 84 -60 99 -112 99 -41 0 -79 -36 -99 -95 -23 -67 -102 -138 -189
-170 -80 -30 -156 -75 -178 -106 -35 -51 -52 -8 -52 130 0 95 15 164 51 237
64 128 211 229 368 254 79 12 215 2 284 -21z m-158 -559 c14 -23 125 -89 200
-119 88 -35 118 -58 146 -113 23 -46 24 -113 3 -216 -29 -140 -95 -225 -222
-285 -60 -28 -77 -32 -154 -31 -82 0 -92 3 -165 39 -90 47 -149 111 -182 200
-26 69 -38 213 -22 271 13 49 72 110 115 120 50 11 147 60 201 103 52 41 70
48 80 31z"/>
<path d="M2080 6549 c-202 -23 -392 -175 -462 -370 -21 -60 -23 -83 -26 -354
-3 -238 -1 -302 12 -358 25 -107 63 -174 146 -258 125 -128 277 -187 446 -176
214 15 414 163 495 369 45 115 46 654 1 780 -67 187 -260 346 -442 364 -30 3
-66 6 -80 8 -14 1 -54 -1 -90 -5z m207 -205 c88 -24 182 -111 220 -204 16 -40
18 -77 18 -340 l0 -295 -33 -67 c-38 -78 -100 -138 -182 -177 -48 -23 -68 -26
-155 -26 -90 0 -106 3 -160 29 -109 54 -183 151 -205 268 -13 67 -13 471 0
538 43 226 253 342 497 274z"/>
<path d="M1275 5406 c-95 -30 -177 -88 -237 -167 -42 -56 -75 -152 -163 -469
-31 -113 -65 -232 -75 -265 -17 -53 -99 -335 -211 -725 -62 -216 -72 -267 -67
-341 7 -95 43 -163 124 -238 l65 -59 -30 -54 c-66 -116 -63 -68 -68 -1297 -5
-1027 -4 -1116 12 -1157 22 -59 62 -81 117 -65 73 22 68 -60 68 1204 0 1274
-5 1193 74 1271 34 34 55 44 116 60 119 29 133 30 178 7 102 -52 146 -118 161
-241 9 -71 25 -101 64 -122 25 -13 82 7 107 39 36 46 24 171 -27 279 -26 55
-109 149 -167 189 -28 20 -28 21 -13 51 9 17 25 68 37 115 41 164 41 163 51
148 5 -8 9 -31 9 -52 0 -31 6 -44 32 -65 17 -15 55 -48 83 -74 29 -27 56 -48
62 -48 19 0 31 1132 12 1173 -6 13 -24 32 -40 41 -25 15 -35 16 -65 6 -28 -10
-40 -22 -56 -56 -10 -24 -64 -221 -118 -437 -168 -663 -164 -646 -206 -697
-87 -103 -290 -96 -362 13 -37 56 -35 119 13 277 20 69 52 177 70 240 73 260
129 454 175 605 26 88 64 218 84 289 72 256 97 326 129 362 40 46 99 76 167
83 41 5 55 10 53 21 -2 23 -45 144 -56 158 -12 15 -50 15 -102 -2z"/>
<path d="M2930 5419 c0 -2 -12 -35 -26 -74 -13 -38 -27 -78 -30 -87 -5 -13 1
-19 22 -23 128 -25 177 -50 218 -113 17 -24 72 -200 161 -512 75 -261 156
-540 180 -620 82 -270 137 -485 137 -532 0 -80 -53 -144 -141 -168 -113 -31
-246 22 -280 112 -11 30 -96 355 -166 638 -103 419 -115 459 -148 486 -25 21
-38 25 -66 20 -19 -3 -44 -15 -55 -26 -21 -21 -21 -25 -16 -618 3 -328 5 -696
5 -817 l0 -220 -475 -5 c-261 -3 -481 -9 -487 -13 -7 -5 -13 -21 -13 -36 0
-15 -7 -50 -15 -76 -8 -27 -12 -52 -9 -57 3 -4 200 -8 438 -8 271 0 436 -4
442 -10 10 -10 9 -20 -21 -350 -39 -426 -56 -619 -80 -915 -15 -176 -32 -381
-40 -455 -13 -131 -14 -135 -45 -163 -29 -26 -37 -28 -98 -25 l-67 3 -5 498
-5 499 -28 24 c-37 32 -87 32 -124 0 l-28 -24 -5 -499 -5 -498 -63 -3 c-69 -3
-102 10 -123 49 -10 19 -30 226 -69 709 -29 368 -89 1047 -96 1093 -3 20 -8
37 -11 37 -3 0 -26 -19 -51 -41 -26 -23 -62 -48 -79 -57 -32 -15 -33 -17 -33
-81 0 -36 5 -106 10 -156 10 -94 58 -681 86 -1035 21 -283 41 -468 54 -512 14
-47 65 -116 110 -145 67 -46 117 -53 370 -53 260 0 296 6 372 58 30 21 55 50
77 91 36 68 45 133 75 531 9 113 23 284 31 380 8 96 21 258 30 360 8 102 19
230 25 285 5 55 15 166 21 248 l12 147 43 19 c79 35 77 20 69 453 -3 214 -2
396 3 413 8 28 10 24 31 -55 37 -142 51 -177 88 -227 45 -62 104 -106 184
-140 55 -24 79 -28 169 -29 105 -1 105 -1 102 -25 -2 -13 -21 -103 -42 -199
-21 -96 -60 -277 -86 -402 -67 -323 -71 -318 230 -318 l184 0 6 -32 c3 -18 13
-94 21 -168 40 -337 57 -476 95 -775 47 -377 52 -403 87 -467 28 -51 61 -81
133 -119 45 -24 47 -24 350 -24 l305 0 57 28 c76 37 133 103 157 182 22 69 19
49 66 445 66 547 106 865 112 898 l5 32 177 0 c190 0 242 8 266 43 22 32 19
63 -24 246 -22 91 -42 183 -46 205 l-6 39 -47 -49 c-26 -27 -63 -60 -81 -75
l-35 -25 13 -87 c6 -48 9 -92 6 -97 -7 -12 -1824 -14 -1841 -2 -13 8 20 190
37 207 7 6 263 10 729 10 395 0 721 3 725 7 4 3 -14 32 -39 62 -25 31 -49 68
-52 81 -3 14 -14 30 -24 35 -12 6 -263 10 -659 10 -461 0 -641 3 -641 11 0 43
106 494 127 539 18 40 27 82 33 155 5 55 18 143 29 195 48 219 61 274 70 283
6 6 22 1 41 -13 55 -39 158 -70 237 -70 88 0 155 23 243 84 l63 44 45 -35 c25
-19 68 -46 96 -61 46 -25 61 -27 161 -27 99 0 116 3 165 27 30 15 69 36 87 48
l31 21 21 -88 c11 -48 37 -167 57 -263 44 -212 68 -289 112 -355 21 -31 31
-54 25 -62 -90 -127 -120 -192 -128 -285 -7 -85 9 -128 57 -151 33 -16 40 -16
71 -4 40 17 67 67 67 124 0 63 29 132 73 174 37 37 43 39 100 39 33 0 86 7
117 16 55 15 59 15 97 -5 47 -23 89 -69 114 -126 18 -38 19 -99 19 -1186 l0
-1146 23 -34 c28 -41 74 -57 117 -39 17 7 33 22 35 34 3 11 4 559 3 1216 l-3
1195 -28 57 c-16 32 -55 85 -88 117 l-59 60 30 59 c58 115 57 125 -70 622 -61
235 -141 550 -282 1105 -17 66 -42 142 -55 169 -47 94 -172 202 -225 194 -17
-2 -28 -18 -49 -73 -15 -38 -28 -76 -28 -82 -1 -7 14 -19 32 -27 17 -7 47 -30
66 -49 37 -39 31 -21 172 -567 33 -129 73 -285 89 -346 16 -60 56 -216 89
-345 33 -129 69 -270 80 -313 43 -164 17 -245 -91 -291 -52 -21 -96 -19 -148
8 -62 31 -82 66 -109 193 -13 60 -39 171 -58 247 -30 122 -76 334 -103 467
-15 78 -60 254 -71 282 -23 56 -94 75 -142 38 -37 -29 -40 -63 -17 -174 24
-118 25 -145 4 -194 -43 -105 -168 -160 -268 -118 -79 33 -122 95 -140 207 -9
51 -47 84 -98 84 -54 0 -82 -33 -97 -116 -14 -83 -47 -130 -112 -163 -89 -44
-176 -30 -246 40 -59 60 -70 106 -48 209 35 164 30 201 -32 230 -29 14 -40 15
-65 4 -16 -6 -36 -22 -44 -35 -12 -18 -85 -314 -131 -526 -3 -16 -9 -28 -13
-28 -10 0 -51 125 -127 390 -47 167 -63 235 -59 262 9 57 127 490 142 519 12
24 54 64 104 99 l21 15 -26 72 c-15 39 -33 74 -41 77 -37 14 -140 -57 -204
-142 -36 -49 -63 -116 -90 -229 -6 -24 -14 -43 -18 -43 -4 0 -21 39 -36 88
-16 48 -39 107 -51 132 -50 100 -200 203 -314 217 -28 3 -51 4 -51 2z m2040
-3286 c0 -10 -7 -67 -15 -128 -14 -104 -47 -365 -116 -915 -18 -140 -38 -259
-47 -279 -21 -45 -66 -63 -150 -59 l-67 3 -5 490 c-6 550 -4 537 -76 551 -43
8 -77 -6 -100 -42 -16 -24 -18 -73 -23 -513 l-6 -486 -72 -3 c-115 -5 -146 19
-164 126 -17 103 -88 682 -135 1097 -8 72 -16 136 -19 143 -3 8 -3 18 1 23 3
5 213 9 500 9 464 0 494 -1 494 -17z"/>
</g>
</svg>
